# xmcd CD database file
#
# Track frame offsets:
#	150
#	10917
#	20662
#	32363
#	42603
#	53959
#	66400
#	76517
#	87086
#	97192
#	107579
#	120977
#	132799
#	149928
#	160722
#	177497
#	191818
#	211733
#	226500
#	241274
#	265173
#	274604
#	289268
#	306314
#	320618
#
# Disc length: 4402 seconds
#
# Revision: 0
# Processed by: cddbd v1.5.2PL0 Copyright (c) Steve Scherf et al.
# Submitted via: CDex 1.51
#
DISCID=5f113019
DTITLE=50 Years - Charlene Condray Hancock
DYEAR=2008
DGENRE=Country
TTITLE0=Do You Remember
TTITLE1=Tonight
TTITLE2=Shanty in an Old Shanty Town
TTITLE3=My Summer Heart
TTITLE4=So Satisfied
TTITLE5=The Brush Off
TTITLE6=Blue Norther
TTITLE7=Intermission
TTITLE8=Too Young
TTITLE9=Iron and Steel Business
TTITLE10=If You Want Some Lovin'
TTITLE11=You Ain't Goin' Nowhere
TTITLE12=Don't Let The Mountains Down
TTITLE13=I've Got To See My Baby
TTITLE14=Rockin' Music
TTITLE15=Baby Baby Baby
TTITLE16=Afterglow
TTITLE17=Love Me Tender
TTITLE18=What Are You To Me
TTITLE19=The Gypsy
TTITLE20=How Many Nights
TTITLE21=It's All a Dream
TTITLE22=Make Love To Me
TTITLE23=I Give
TTITLE24=True Love
EXTD=YEAR: 2008
EXTT0=
EXTT1=
EXTT2=
EXTT3=
EXTT4=
EXTT5=
EXTT6=
EXTT7=
EXTT8=
EXTT9=
EXTT10=
EXTT11=
EXTT12=
EXTT13=
EXTT14=
EXTT15=
EXTT16=
EXTT17=
EXTT18=
EXTT19=
EXTT20=
EXTT21=
EXTT22=
EXTT23=
EXTT24=
PLAYORDER=
